<?xml version="1.0" encoding="utf-8"?>
<!-- Generator: Adobe Illustrator 24.1.2, SVG Export Plug-In . SVG Version: 6.00 Build 0)  -->
<svg version="1.1" id="Layer_1" xmlns="http://www.w3.org/2000/svg" xmlns:xlink="http://www.w3.org/1999/xlink" x="0px" y="0px"
	 viewBox="0 0 500 500" style="enable-background:new 0 0 500 500;" xml:space="preserve">
<style type="text/css">
	.st0{fill:#F26222;}
</style>
<g>
	<path class="st0" d="M223,224.9c-0.2-0.1-0.9-0.2-1.3,0.2c-0.3,0.3-0.3,0.6-0.4,0.9c-0.3,3.3-0.7,6.6-1,9.9
		c-0.6,6.2-1.3,12.4-1.9,18.6c-0.5,4.3-0.8,8.6,0.2,12.9c2.5,10.8,12.7,20.2,23.4,20.8c7.9,0.4,15.8,0.5,23.7,0
		c13.6-0.8,24.9-13.1,24.7-26.8c-0.1-5.6-0.9-11.1-1.4-16.7c-0.6-6.1-1.3-12.1-1.8-18.1c0-0.2,0-1-0.5-1.5c-0.5-0.5-1.3-0.4-1.5-0.4
		C283.7,225,258.4,225,223,224.9z"/>
	<path class="st0" d="M171.9,229.2c-1.3,5.1,1.5,10.3,6.4,12.1c2.9,1,5.8,0.2,8.7-0.2c1-0.2,1.1-0.6,1.2-1.4
		c0.2-2.8,0.6-5.6,0.9-8.4c0.3-2.8,0.5-5.6,0.8-8.4c-2.3-0.3-4.4-0.6-6.5-0.9C178.3,220.9,173.2,224.1,171.9,229.2z"/>
	<path class="st0" d="M296,254.6c0.9,0,1.8,0.3,2.6,0.5c6.7,1.3,12.7-2.7,13.8-9c1.1-6.5-3.3-12.5-10.1-13c-3.3-0.3-6.8,0.6-10.1,1
		c0,0.5-0.1,0.8-0.1,1c0.6,5.8,1.2,11.6,1.8,17.5C294.1,253.7,294.4,254.7,296,254.6z"/>
	<path class="st0" d="M197.4,214.5c-2.5,0-2.5,0-2.8,2.5c-0.1,0.6-0.2,1.2-0.3,1.8c-0.8,8.2-1.5,16.5-2.5,24.7
		c-1.1,9.6,2.2,17.4,9.7,23.3c4,3.1,8.6,4.7,14,4.9c-0.2-0.7-0.4-1.2-0.5-1.7c-0.4-3.5-1.5-7.1-1.2-10.5c0.9-12,2.3-24,3.5-36
		c0.2-2.4,0.9-3,3.3-3c10.5,0,21.1,0,31.6,0c0.6,0,1.2,0,2,0c-0.2-2.1-0.4-4-0.6-6.2c-0.8,0-1.4,0-2.1,0
		C233.6,214.5,215.5,214.5,197.4,214.5z"/>
	<path class="st0" d="M245.5,99.7c-60.6,0-109.6,49.1-109.6,109.6c0,60.6,49.1,109.6,109.6,109.6s109.6-49.1,109.6-109.6
		C355.2,148.8,306.1,99.7,245.5,99.7z M307.9,278.6c-39.8,35.9-101.8,30.8-135.1-11c-33-41.4-23.7-98.1,11.1-127.9
		c0.7,0.8,1.4,1.7,2.2,2.6c-21.9,20.6-32.4,45.9-29.6,76c2.3,24.7,13.5,45,32.8,60.7c37.2,30.3,92.1,25.5,123.5-10.5
		c31.8-36.5,29.2-91.3-5.8-124.2c-35.1-32.9-85.2-29.9-114.7-6.6c2.8,3,5.6,6,8.4,9.1c0.7-0.6,1.1-0.9,1.5-1.2
		c12.9-11.3,27.9-16.9,45.1-16.4c16.4,0.5,30.5,6.7,42.5,17.9c2,1.8,2,2.5,0.1,4.4c-2.9,2.9-5.8,5.7-8.7,8.6c-1.3,1.3-2.1,1.3-3.4,0
		c-10.1-9.6-22.1-14-35.9-13.1c-10.5,0.7-19.8,4.7-27.7,11.7c-0.2,0.1-0.3,0.3-0.4,0.4c2.1,2.1,4.2,4.2,6.4,6.4
		c3.3-2.8,6.9-5.3,11.2-6.8c14.7-5.3,27.9-2.6,39.6,7.7c1.7,1.5,1.6,2.2,0,3.9c-2.6,2.6-5.3,5.3-7.9,7.9c-1.7,1.7-2.4,1.7-4.1,0.1
		c-7-6.5-18.1-7.2-25.9-1.5c-0.4,0.3-0.7,0.6-1.2,1c2.6,3.5,5.3,7,7.9,10.4c5.5,7.3,11,14.6,16.6,21.8c1.5,1.9,1.1,4.2,1.5,6.3
		c0.3,1.4,0.3,2.9,0.5,4.6c0.6,0,1.2,0,1.8,0c9.2,0,18.4,0,27.6,0c2.3,0,2.9,0.5,3.2,2.8c0.3,2.1,0.4,4.1,0.6,6.5
		c2.4-0.3,4.6-0.6,6.9-0.9c6.6-0.9,12,1.2,15.7,6.7c3.7,5.5,3.7,11.4,0.1,16.9c-3.6,5.6-9,7.8-15.6,6.8c-1.1-0.2-2.1-0.3-3.2-0.5
		c-0.2,0-0.4,0-0.4,0c-0.6,3.7-0.7,7.4-1.7,10.9c-3.6,13.4-16.1,22.9-30,23c-6,0-12.1,0.1-18.1,0c-11.9-0.2-20.9-5.6-27.2-15.6
		c-0.6-1-1.2-1.4-2.4-1.4c-14.3-0.1-26.5-11.3-28-25.5c-0.2-1.7-0.3-3.4-0.4-5.1c-2.1,0.2-4.2,0.5-6.3,0.5c-7.3,0-13.1-6-13.6-13.7
		c-0.4-6.7,5.2-13.4,11.9-14c2.6-0.3,5.4,0.3,8,0.4c0.9,0.1,1.8,0.2,2.8,0.3c0.2-1.9,0.4-3.6,0.6-5.3c0.2-2.4,0.7-3,3.1-3
		c18.9,0,37.8,0,56.7,0c0.6,0,1.2,0,2.2,0c-0.6-0.8-1.1-1.4-1.6-2c-7.7-9.8-15.4-19.6-23.2-29.3c-1.2-1.5-1.1-2.3,0.3-3.6
		c8.6-7.9,21.5-8.7,31-1.8c0.4,0.3,0.9,0.6,1.2,0.9c2.2-2.2,4.3-4.4,6.5-6.6c-4.3-4-9.5-6.5-15.4-7.7c-11.5-2.2-21.6,0.8-30.3,8.8
		c-1.4,1.3-2.1,1.3-3.4,0c-2.8-2.8-5.6-5.6-8.4-8.4c-1.3-1.3-1.3-2.1,0-3.4c8.1-7.8,17.7-12.6,28.9-13.9
		c15.1-1.8,28.4,2.5,39.9,12.3c0.2,0.2,0.4,0.3,0.6,0.5c2.3-2.4,4.6-4.7,7.1-7.2c-1.1-1-2.3-2.1-3.6-3.1
		c-12.5-9.7-26.6-14.1-42.3-12.9c-14.4,1.1-26.9,6.8-37.3,16.8c-1.9,1.8-2.4,1.8-4.3,0c-3-3-5.9-5.9-8.9-8.8c-1.1-1.1-2.5-2-3.8-3.1
		c31-27.3,86.5-32,124.4,4.9C349.2,180.3,347.9,242.5,307.9,278.6z"/>
</g>
<g>
	<path class="st0" d="M96.9,379.2h-1.6l-10-28.8h2.1l8.8,25.7l7.8-25.7h1.6l7.8,25.7l8.8-25.7h2.1l-10,28.8h-1.7l-7.7-25.5
		L96.9,379.2z"/>
	<path class="st0" d="M141.7,379.5c-4.1,0-7.5-1.4-10.2-4.2c-2.7-2.8-4.1-6.3-4.1-10.6c0-4.2,1.4-7.7,4.1-10.6
		c2.8-2.8,6.2-4.3,10.2-4.3c4,0,7.4,1.4,10.2,4.3c2.7,2.8,4.1,6.3,4.1,10.6c0,4.3-1.4,7.8-4.1,10.6
		C149.1,378.1,145.7,379.5,141.7,379.5z M132.9,374c2.4,2.5,5.3,3.7,8.8,3.7c3.5,0,6.4-1.2,8.8-3.7c2.4-2.5,3.6-5.6,3.6-9.3
		c0-3.7-1.2-6.8-3.6-9.3c-2.4-2.5-5.3-3.7-8.8-3.7c-3.5,0-6.4,1.2-8.8,3.7c-2.4,2.5-3.6,5.6-3.6,9.3
		C129.4,368.4,130.6,371.5,132.9,374z"/>
	<path class="st0" d="M165.2,379h-1.9v-28.7H176c2.7,0,4.8,0.7,6.4,2c1.6,1.4,2.3,3.2,2.3,5.5c0,2.1-0.6,3.8-1.9,5.1
		c-1.3,1.3-3,2.1-5.2,2.4L187,379h-2.2l-9.4-13.5h-10.2V379z M165.2,352.1v11.7h10.6c2.2,0,3.9-0.5,5.2-1.5c1.2-1,1.8-2.5,1.8-4.3
		c0-1.8-0.6-3.3-1.8-4.3c-1.2-1-2.9-1.5-5.2-1.5H165.2z"/>
	<path class="st0" d="M195.3,379h-1.9v-28.7h1.9V363l14.6-12.6h2.7l-15.1,13.1l17.4,15.5H212l-16.7-14.9V379z"/>
	<path class="st0" d="M221.7,379h-1.9v-28.7h1.9V379z"/>
	<path class="st0" d="M232.4,379h-1.9v-28.7h1.7l19.5,25.4v-25.4h1.9V379H252l-19.6-25.4V379z"/>
	<path class="st0" d="M275.6,379h-14.1v-28.7h13c2.6,0,4.6,0.6,6.2,1.9c1.5,1.3,2.3,3,2.3,5.2c0,1.4-0.4,2.6-1.1,3.7
		c-0.7,1-1.6,1.8-2.7,2.2c1.8,0.3,3.3,1.2,4.4,2.5c1.1,1.4,1.7,3.1,1.7,5.1c0,2.4-0.9,4.4-2.6,5.9C280.9,378.3,278.6,379,275.6,379z
		 M266,354.5v7.4h7.7c1.5,0,2.7-0.3,3.5-1c0.8-0.6,1.2-1.6,1.2-2.8c0-1.2-0.4-2.1-1.2-2.7c-0.8-0.6-2-0.9-3.5-0.9H266z M266,365.9v9
		h8.8c1.7,0,3.1-0.4,4.1-1.2c1-0.8,1.5-1.9,1.5-3.4c0-1.4-0.5-2.5-1.5-3.3c-1-0.8-2.4-1.1-4.1-1.1H266z"/>
	<path class="st0" d="M290.7,366.9v-16.5h4.5v16.7c0,2.6,0.7,4.7,2,6.1c1.3,1.4,3.2,2.1,5.5,2.1c2.3,0,4.2-0.7,5.5-2.1
		c1.4-1.4,2-3.5,2-6.1v-16.7h4.5v16.5c0,4-1.1,7.1-3.4,9.3c-2.3,2.2-5.2,3.3-8.7,3.3c-3.5,0-6.4-1.1-8.7-3.3
		C291.8,374.1,290.7,370.9,290.7,366.9z"/>
	<path class="st0" d="M331.5,379h-10.1v-28.7h10.1c4.6,0,8.3,1.3,11.3,4c2.9,2.7,4.4,6.1,4.4,10.3c0,4.2-1.5,7.7-4.4,10.4
		C339.9,377.7,336.1,379,331.5,379z M325.9,354.5v20.4h5.2c3.6,0,6.4-0.9,8.4-2.7c2-1.9,3-4.3,3-7.5c0-3.1-1-5.6-3-7.4
		c-2-1.8-4.8-2.7-8.4-2.7H325.9z"/>
	<path class="st0" d="M363.4,379h-10.1v-28.7h10.1c4.6,0,8.3,1.3,11.3,4c2.9,2.7,4.4,6.1,4.4,10.3c0,4.2-1.5,7.7-4.4,10.4
		C371.7,377.7,368,379,363.4,379z M357.8,354.5v20.4h5.2c3.6,0,6.4-0.9,8.4-2.7c2-1.9,3-4.3,3-7.5c0-3.1-1-5.6-3-7.4
		c-2-1.8-4.8-2.7-8.4-2.7H357.8z"/>
	<path class="st0" d="M395.9,379h-4.5v-13l-11.1-15.7h5.2l8.2,11.6l8.2-11.6h5.1l-11.1,15.6V379z"/>
</g>
</svg>
