<svg width="414" height="203" viewBox="0 0 414 203" fill="none" xmlns="http://www.w3.org/2000/svg">
<g filter="url(#filter0_d)">
<path d="M497.047 381.5C496.769 385.356 493.418 388.256 489.562 387.978L-58.0181 348.52C-61.8741 348.242 -64.7748 344.891 -64.4969 341.035L-42.9302 41.7431C-42.6484 37.8318 -37.0912 37.362 -36.1568 41.1705C-13.457 133.694 93.6595 176.267 173.68 124.57L258.766 69.6006C336.222 25.3557 430.094 20.5498 511.663 56.6532L519.688 60.2051C519.985 60.3367 520.168 60.6408 520.144 60.9652L497.047 381.5Z" fill="#FF6000"/>
<path d="M496.548 381.464C496.29 385.044 493.179 387.738 489.598 387.48L-57.9822 348.022C-61.5628 347.764 -64.2562 344.652 -63.9982 341.071L-42.4315 41.779C-42.1906 38.4361 -37.441 38.0346 -36.6424 41.2896C-13.8607 134.147 93.6421 176.874 173.951 124.99L259.026 70.0282C336.341 25.8682 430.041 21.0732 511.46 57.1104L519.485 60.6623C519.59 60.7086 519.654 60.8153 519.646 60.9292L496.548 381.464Z" stroke="black"/>
</g>
<defs>
<filter id="filter0_d" x="-69" y="0.3396" width="594.597" height="396.142" filterUnits="userSpaceOnUse" color-interpolation-filters="sRGB">
<feFlood flood-opacity="0" result="BackgroundImageFix"/>
<feColorMatrix in="SourceAlpha" type="matrix" values="0 0 0 0 0 0 0 0 0 0 0 0 0 0 0 0 0 0 127 0" result="hardAlpha"/>
<feOffset dy="4"/>
<feGaussianBlur stdDeviation="2"/>
<feComposite in2="hardAlpha" operator="out"/>
<feColorMatrix type="matrix" values="0 0 0 0 0 0 0 0 0 0 0 0 0 0 0 0 0 0 0.25 0"/>
<feBlend mode="normal" in2="BackgroundImageFix" result="effect1_dropShadow"/>
<feBlend mode="normal" in="SourceGraphic" in2="effect1_dropShadow" result="shape"/>
</filter>
</defs>
</svg>
