<svg width="51" height="70" viewBox="0 0 51 70" fill="none" xmlns="http://www.w3.org/2000/svg">
<path d="M50.4667 25.1762C50.4667 39.0894 25.2905 70 25.2905 70C25.2905 70 0 39.0894 0 25.1762C0 11.2631 11.2631 0 25.1991 0C39.1808 0 50.4667 11.2631 50.4667 25.1762Z" fill="#0085FF"/>
<path d="M20.8582 28.6033C20.8125 28.6033 20.6754 28.5576 20.6069 28.649C20.5612 28.6946 20.5384 28.7632 20.5384 28.8089C20.4927 29.4486 20.4013 30.0883 20.3556 30.7279C20.2414 31.9388 20.1043 33.1496 19.9901 34.3604C19.8987 35.2057 19.8301 36.0282 20.0357 36.8735C20.5384 38.9753 22.5031 40.803 24.5821 40.9172C26.1128 41.0086 27.6435 41.0086 29.1741 40.9172C31.8243 40.7573 34.0175 38.3813 33.9718 35.7084C33.9489 34.6346 33.789 33.5608 33.6976 32.4642C33.5834 31.2991 33.4463 30.1111 33.3321 28.946C33.3321 28.9003 33.3321 28.7403 33.2407 28.649C33.1493 28.5576 32.9894 28.5804 32.9437 28.5804C32.6467 28.6261 27.7348 28.6261 20.8582 28.6033Z" fill="white"/>
<path d="M10.9202 29.4255C10.6689 30.4079 11.2172 31.436 12.1767 31.7786C12.7479 31.9843 13.2962 31.8243 13.8673 31.733C14.0501 31.7101 14.0958 31.6187 14.0958 31.4588C14.1415 30.9105 14.21 30.3622 14.2786 29.8367C14.3243 29.2884 14.3928 28.763 14.4385 28.1918C14.0044 28.1233 13.5932 28.0776 13.182 28.0091C12.1539 27.8263 11.1944 28.4431 10.9202 29.4255Z" fill="white"/>
<path d="M35.0458 34.3603C35.2057 34.3603 35.3885 34.4288 35.5484 34.4517C36.8506 34.703 38.0158 33.9262 38.2214 32.7154C38.427 31.4588 37.5817 30.2937 36.2566 30.1795C35.617 30.1338 34.9544 30.2937 34.2919 30.3622C34.2919 30.4765 34.269 30.4993 34.2919 30.545C34.4061 31.6645 34.5204 32.8068 34.6346 33.9262C34.6574 34.2004 34.726 34.3831 35.0458 34.3603Z" fill="white"/>
<path d="M15.8779 26.5698C15.3981 26.5698 15.3981 26.5698 15.3295 27.0724C15.3067 27.1867 15.2839 27.3009 15.2839 27.438C15.1239 29.0372 14.9869 30.6364 14.8041 32.2356C14.5985 34.109 15.2153 35.6168 16.7003 36.7591C17.4771 37.376 18.3681 37.673 19.419 37.7186C19.3733 37.5816 19.3276 37.4902 19.3276 37.376C19.2362 36.6906 19.0534 36.0052 19.0991 35.3427C19.2819 33.0124 19.556 30.6821 19.7845 28.3518C19.8302 27.872 19.9444 27.7807 20.4242 27.7807C22.4803 27.7807 24.5136 27.7807 26.5698 27.7807C26.684 27.7807 26.7982 27.7807 26.9581 27.7807C26.9124 27.3694 26.8896 27.0039 26.8439 26.5927C26.684 26.5927 26.5698 26.5927 26.4327 26.5927C22.9144 26.5698 19.3961 26.5698 15.8779 26.5698Z" fill="white"/>
<path d="M25.2221 4.27222C13.4565 4.27222 3.92969 13.799 3.92969 25.5646C3.92969 37.3303 13.4565 46.8571 25.2221 46.8571C36.9878 46.8571 46.5145 37.3303 46.5145 25.5646C46.5374 13.8218 36.9878 4.27222 25.2221 4.27222ZM37.3533 39.0209C29.6314 45.9889 17.5687 45.0065 11.1033 36.8734C4.70645 28.8316 6.48843 17.797 13.2508 12.017C13.3879 12.1769 13.525 12.3368 13.6849 12.5196C9.41272 16.5176 7.37943 21.4295 7.92773 27.3009C8.38465 32.0986 10.555 36.0509 14.3018 39.0894C21.5439 44.9609 32.1901 44.047 38.29 37.0562C44.4584 29.9511 43.9786 19.3277 37.1705 12.9308C30.3625 6.53396 20.6072 7.10511 14.8729 11.6515C15.4212 12.2226 15.9467 12.8166 16.5178 13.4106C16.6549 13.2964 16.7234 13.2507 16.792 13.1821C19.305 10.9889 22.2065 9.89232 25.5648 10.0066C28.7632 10.0979 31.5048 11.3088 33.8122 13.4791C34.2006 13.8447 34.2006 13.9589 33.835 14.3244C33.2867 14.8727 32.7156 15.4439 32.1444 15.9922C31.8931 16.2435 31.7332 16.2435 31.4819 15.9922C29.5172 14.1417 27.1869 13.2735 24.5139 13.4334C22.4806 13.5705 20.6758 14.3473 19.1451 15.6952C19.1222 15.718 19.0766 15.7637 19.0766 15.7866C19.4878 16.1978 19.899 16.609 20.3331 17.0431C20.9728 16.4948 21.681 16.015 22.5035 15.718C25.3592 14.69 27.9408 15.2154 30.2025 17.2259C30.5224 17.5229 30.5224 17.6599 30.2025 17.9798C29.6999 18.4824 29.1745 19.0079 28.6719 19.5105C28.352 19.8303 28.2149 19.8532 27.8722 19.5333C26.5015 18.2539 24.354 18.1397 22.8461 19.2363C22.7776 19.282 22.7091 19.3505 22.6177 19.4191C23.1431 20.1045 23.6457 20.767 24.1484 21.4295C25.2221 22.846 26.2959 24.2624 27.3696 25.6789C27.6666 26.0444 27.5981 26.4785 27.6666 26.8897C27.7123 27.1639 27.7352 27.4609 27.758 27.7807C27.8722 27.7807 28.0093 27.7807 28.1236 27.7807C29.9055 27.7807 31.7104 27.7807 33.4923 27.7807C33.9493 27.7807 34.0635 27.8721 34.1092 28.3062C34.1549 28.7174 34.1777 29.1058 34.2234 29.5627C34.6803 29.4941 35.1144 29.4485 35.5713 29.3799C36.8507 29.1971 37.9016 29.6084 38.6098 30.6821C39.3181 31.7559 39.3181 32.8982 38.6327 33.9491C37.9245 35.0229 36.8964 35.4798 35.5942 35.2742C35.3886 35.2513 35.1829 35.2056 34.9773 35.1828C34.9316 35.1828 34.886 35.1828 34.9088 35.1828C34.7946 35.9139 34.7717 36.6221 34.589 37.2846C33.8807 39.8891 31.4591 41.7396 28.7632 41.7624C27.5981 41.7624 26.4101 41.7853 25.245 41.7624C22.9375 41.7167 21.1784 40.6887 19.9675 38.7468C19.8533 38.564 19.7391 38.4726 19.5106 38.4726C16.7234 38.4498 14.3703 36.2794 14.0733 33.515C14.0276 33.1952 14.0276 32.8525 14.0048 32.5327C13.5935 32.5784 13.2051 32.624 12.7939 32.6469C11.3775 32.6469 10.2352 31.4817 10.1666 29.9739C10.0981 28.6717 11.1719 27.3695 12.4741 27.2552C12.9767 27.2096 13.525 27.3009 14.0276 27.3466C14.2104 27.3695 14.3703 27.3923 14.5759 27.4152C14.6216 27.0496 14.6673 26.7298 14.6901 26.3871C14.713 25.9302 14.8272 25.816 15.2841 25.816C18.9623 25.816 22.6405 25.816 26.3187 25.816C26.433 25.816 26.5472 25.816 26.7528 25.816C26.6157 25.656 26.5472 25.5418 26.4558 25.4276C24.948 23.5314 23.463 21.6351 21.9551 19.7161C21.7267 19.4191 21.7495 19.282 22.0237 19.0079C23.6914 17.4543 26.2045 17.3173 28.055 18.6652C28.1464 18.7337 28.2378 18.7794 28.3063 18.8479C28.7404 18.4139 29.1516 18.0026 29.5857 17.5686C28.7404 16.7918 27.7352 16.2892 26.5929 16.0836C24.354 15.6495 22.3892 16.2435 20.7215 17.797C20.4473 18.0483 20.3102 18.0483 20.0589 17.797C19.5106 17.2487 18.9623 16.7233 18.4369 16.175C18.1856 15.9237 18.1856 15.7637 18.4369 15.5124C20.0132 14.0046 21.8638 13.0679 24.0341 12.8166C26.9813 12.4739 29.5628 13.2964 31.8017 15.2154C31.8474 15.2611 31.8931 15.284 31.916 15.3068C32.3729 14.8499 32.807 14.393 33.2867 13.9132C33.0811 13.7304 32.8527 13.502 32.5785 13.2964C30.1568 11.423 27.4153 10.5549 24.354 10.7833C21.5668 10.9889 19.1451 12.1084 17.1118 14.0274C16.7463 14.3701 16.632 14.3701 16.2893 14.0274C15.7182 13.4563 15.147 12.8851 14.5531 12.314C14.3246 12.1084 14.0733 11.9256 13.822 11.72C19.8533 6.41974 30.6366 5.5059 37.993 12.6795C45.3722 19.9217 45.1209 32.03 37.3533 39.0209Z" fill="white"/>
</svg>
