<svg width="167" height="16" viewBox="0 0 167 16" fill="none" xmlns="http://www.w3.org/2000/svg">
<path d="M6.909 15.084H6.069L0.945 0.299999H2.037L6.531 13.467L10.521 0.258H11.34L15.351 13.467L19.845 0.299999H20.916L15.792 15.084H14.91L10.941 2.022L6.909 15.084ZM25.4095 12.417C26.6275 13.691 28.1255 14.328 29.9035 14.328C31.6815 14.328 33.1795 13.691 34.3975 12.417C35.6155 11.129 36.2245 9.54 36.2245 7.65C36.2245 5.746 35.6155 4.157 34.3975 2.883C33.1795 1.609 31.6815 0.971999 29.9035 0.971999C28.1255 0.971999 26.6275 1.609 25.4095 2.883C24.1915 4.157 23.5825 5.746 23.5825 7.65C23.5825 9.54 24.1915 11.129 25.4095 12.417ZM29.9035 15.252C27.8175 15.252 26.0745 14.531 24.6745 13.089C23.2885 11.647 22.5955 9.834 22.5955 7.65C22.5955 5.494 23.2885 3.688 24.6745 2.232C26.0885 0.776 27.8315 0.0479997 29.9035 0.0479997C31.9615 0.0479997 33.6975 0.776 35.1115 2.232C36.5115 3.674 37.2115 5.48 37.2115 7.65C37.2115 9.834 36.5115 11.647 35.1115 13.089C33.7115 14.531 31.9755 15.252 29.9035 15.252ZM41.9513 15H40.9853V0.299999H47.4953C48.8813 0.299999 49.9733 0.649999 50.7713 1.35C51.5693 2.05 51.9683 2.988 51.9683 4.164C51.9683 5.228 51.6463 6.103 51.0023 6.789C50.3583 7.475 49.4623 7.888 48.3143 8.028L53.1443 15H52.0103L47.2013 8.091H41.9513V15ZM41.9513 1.203V7.188H47.4113C48.5453 7.188 49.4273 6.929 50.0573 6.411C50.6873 5.893 51.0023 5.151 51.0023 4.185C51.0023 3.247 50.6873 2.519 50.0573 2.001C49.4273 1.469 48.5453 1.203 47.4113 1.203H41.9513ZM57.4142 15H56.4482V0.299999H57.4142V6.789L64.8902 0.299999H66.2552L58.5062 7.041L67.4312 15H65.9612L57.4142 7.356V15ZM70.9528 15H69.9868V0.299999H70.9528V15ZM76.4454 15H75.4794V0.299999H76.3404L86.3574 13.32V0.299999H87.3234V15H86.4834L76.4454 1.959V15ZM98.5666 15H91.1746V0.299999H98.0836C99.4416 0.299999 100.52 0.621999 101.318 1.266C102.13 1.91 102.536 2.813 102.536 3.975C102.536 4.689 102.361 5.298 102.011 5.802C101.661 6.306 101.22 6.67 100.688 6.894C101.486 7.062 102.186 7.496 102.788 8.196C103.376 8.882 103.67 9.757 103.67 10.821C103.67 12.067 103.208 13.075 102.284 13.845C101.374 14.615 100.135 15 98.5666 15ZM94.1986 8.553V12.396H97.9996C98.7556 12.396 99.3436 12.235 99.7636 11.913C100.184 11.577 100.394 11.101 100.394 10.485C100.394 9.869 100.184 9.393 99.7636 9.057C99.3436 8.721 98.7556 8.553 97.9996 8.553H94.1986ZM94.1986 2.82V6.054H97.6006C98.2306 6.054 98.7206 5.914 99.0706 5.634C99.4346 5.354 99.6166 4.962 99.6166 4.458C99.6166 3.94 99.4346 3.541 99.0706 3.261C98.7206 2.967 98.2306 2.82 97.6006 2.82H94.1986ZM112.297 15.294C110.463 15.294 108.958 14.727 107.782 13.593C106.606 12.459 106.018 10.87 106.018 8.826V0.299999H109.021V8.931C109.021 10.065 109.315 10.94 109.903 11.556C110.505 12.158 111.303 12.459 112.297 12.459C113.305 12.459 114.103 12.158 114.691 11.556C115.293 10.94 115.594 10.065 115.594 8.931V0.299999H118.618V8.826C118.618 10.87 118.023 12.459 116.833 13.593C115.657 14.727 114.145 15.294 112.297 15.294ZM127.151 15H121.649V0.299999H127.151C129.531 0.299999 131.47 0.985999 132.968 2.358C134.466 3.73 135.215 5.494 135.215 7.65C135.215 9.82 134.466 11.591 132.968 12.963C131.484 14.321 129.545 15 127.151 15ZM124.673 3.009V12.291H126.899C128.537 12.291 129.811 11.885 130.721 11.073C131.645 10.247 132.107 9.106 132.107 7.65C132.107 6.194 131.645 5.06 130.721 4.248C129.811 3.422 128.537 3.009 126.899 3.009H124.673ZM143.455 15H137.953V0.299999H143.455C145.835 0.299999 147.774 0.985999 149.272 2.358C150.77 3.73 151.519 5.494 151.519 7.65C151.519 9.82 150.77 11.591 149.272 12.963C147.788 14.321 145.849 15 143.455 15ZM140.977 3.009V12.291H143.203C144.841 12.291 146.115 11.885 147.025 11.073C147.949 10.247 148.411 9.106 148.411 7.65C148.411 6.194 147.949 5.06 147.025 4.248C146.115 3.422 144.841 3.009 143.203 3.009H140.977ZM160.455 15H157.452V8.406L151.761 0.299999H155.331L158.985 5.529L162.66 0.299999H166.125L160.455 8.343V15Z" fill="#FF6000"/>
</svg>
