<svg width="414" height="552" viewBox="0 0 414 552" fill="none" xmlns="http://www.w3.org/2000/svg">
<path d="M60.71 -138.938C62.643 -142.286 66.9241 -143.433 70.2721 -141.5L607.561 168.704C610.909 170.637 612.057 174.918 610.124 178.266L436.494 479.002C434.273 482.849 428.378 480.557 429.338 476.22C452.848 370.047 363.555 272.861 255.775 287.314L144.397 302.25C43.6933 310.15 -54.5904 268.734 -119.268 191.142L-125.146 184.089C-125.375 183.815 -125.408 183.428 -125.229 183.119L60.71 -138.938Z" fill="#FF6000" fill-opacity="0.1"/>
<path d="M-103.858 -67C-103.858 -70.866 -100.724 -74 -96.8584 -74H452.142C456.008 -74 459.142 -70.866 459.142 -67V233.068C459.142 236.99 453.633 237.858 452.427 234.126C423.136 143.474 313.237 108.709 237.139 166.023L156.223 226.966C82.1478 276.664 -11.1357 288.204 -95.0888 258.057L-103.348 255.091C-103.654 254.981 -103.858 254.691 -103.858 254.365V-67Z" fill="#FF6000"/>
</svg>
