<?xml version="1.0" encoding="utf-8"?>
<!-- Generator: Adobe Illustrator 24.1.2, SVG Export Plug-In . SVG Version: 6.00 Build 0)  -->
<svg version="1.1" id="Layer_1" xmlns="http://www.w3.org/2000/svg" xmlns:xlink="http://www.w3.org/1999/xlink" x="0px" y="0px"
	 viewBox="0 0 595.3 841.9" style="enable-background:new 0 0 595.3 841.9;" xml:space="preserve">
<style type="text/css">
	.st0{fill:#F06222;}
	.st1{fill:#FFFFFF;}
	.st2{fill:#FFFFFF;stroke:#000000;stroke-width:0.25;stroke-miterlimit:10;}
</style>
<g>
	<path class="st0" d="M408.1,178.8c0,60.9-110.2,196.2-110.2,196.2S187.2,239.7,187.2,178.8S236.5,68.6,297.5,68.6
		C358.7,68.6,408.1,117.9,408.1,178.8L408.1,178.8z"/>
	<g>
		<path class="st1" d="M278.5,193.8c-0.2,0-0.8-0.2-1.1,0.2c-0.2,0.2-0.3,0.5-0.3,0.7c-0.2,2.8-0.6,5.6-0.8,8.4
			c-0.5,5.3-1.1,10.6-1.6,15.9c-0.4,3.7-0.7,7.3,0.2,11c2.2,9.2,10.8,17.2,19.9,17.7c6.7,0.4,13.4,0.4,20.1,0
			c11.6-0.7,21.2-11.1,21-22.8c-0.1-4.7-0.8-9.4-1.2-14.2c-0.5-5.1-1.1-10.3-1.6-15.4c0-0.2,0-0.9-0.4-1.3c-0.4-0.4-1.1-0.3-1.3-0.3
			C330.1,193.9,308.6,193.9,278.5,193.8z"/>
		<path class="st1" d="M235,197.4c-1.1,4.3,1.3,8.8,5.5,10.3c2.5,0.9,4.9,0.2,7.4-0.2c0.8-0.1,1-0.5,1-1.2c0.2-2.4,0.5-4.8,0.8-7.1
			c0.2-2.4,0.5-4.7,0.7-7.2c-1.9-0.3-3.7-0.5-5.5-0.8C240.4,190.4,236.2,193.1,235,197.4z"/>
		<path class="st1" d="M340.6,219c0.7,0,1.5,0.3,2.2,0.4c5.7,1.1,10.8-2.3,11.7-7.6c0.9-5.5-2.8-10.6-8.6-11.1
			c-2.8-0.2-5.7,0.5-8.6,0.8c0,0.5-0.1,0.6,0,0.8c0.5,4.9,1,9.9,1.5,14.8C338.9,218.3,339.2,219.1,340.6,219z"/>
		<path class="st1" d="M256.7,184.9c-2.1,0-2.1,0-2.4,2.2c-0.1,0.5-0.2,1-0.2,1.6c-0.7,7-1.3,14-2.1,21c-0.9,8.2,1.8,14.8,8.3,19.8
			c3.4,2.7,7.3,4,11.9,4.2c-0.2-0.6-0.4-1-0.4-1.5c-0.4-3-1.2-6-1-8.9c0.8-10.2,2-20.4,3-30.6c0.2-2.1,0.7-2.5,2.8-2.5
			c9,0,17.9,0,26.9,0c0.5,0,1,0,1.7,0c-0.2-1.8-0.3-3.4-0.5-5.2c-0.7,0-1.2,0-1.8,0C287.5,184.9,272.1,184.9,256.7,184.9z"/>
		<path class="st1" d="M297.6,87.3c-51.5,0-93.2,41.7-93.2,93.2c0,51.5,41.7,93.2,93.2,93.2s93.2-41.7,93.2-93.2
			C390.9,129.1,349.1,87.3,297.6,87.3z M350.7,239.4c-33.8,30.5-86.6,26.2-114.9-9.4c-28-35.2-20.2-83.5,9.4-108.8
			c0.6,0.7,1.2,1.4,1.9,2.2c-18.7,17.5-27.6,39-25.2,64.7c2,21,11.5,38.3,27.9,51.6c31.7,25.7,78.3,21.7,105-8.9
			c27-31.1,24.9-77.6-4.9-105.6c-29.8-28-72.5-25.5-97.6-5.6c2.4,2.5,4.7,5.1,7.2,7.7c0.6-0.5,0.9-0.7,1.2-1
			c11-9.6,23.7-14.4,38.4-13.9c14,0.4,26,5.7,36.1,15.2c1.7,1.6,1.7,2.1,0.1,3.7c-2.4,2.4-4.9,4.9-7.4,7.3c-1.1,1.1-1.8,1.1-2.9,0
			c-8.6-8.1-18.8-11.9-30.5-11.2c-8.9,0.6-16.8,4-23.5,9.9c-0.1,0.1-0.3,0.3-0.3,0.4c1.8,1.8,3.6,3.6,5.5,5.5
			c2.8-2.4,5.9-4.5,9.5-5.8c12.5-4.5,23.8-2.2,33.7,6.6c1.4,1.3,1.4,1.9,0,3.3c-2.2,2.2-4.5,4.5-6.7,6.7c-1.4,1.4-2,1.5-3.5,0.1
			c-6-5.6-15.4-6.1-22-1.3c-0.3,0.2-0.6,0.5-1,0.8c2.3,3,4.5,5.9,6.7,8.8c4.7,6.2,9.4,12.4,14.1,18.6c1.3,1.6,1,3.5,1.3,5.3
			c0.2,1.2,0.3,2.5,0.4,3.9c0.5,0,1.1,0,1.6,0c7.8,0,15.7,0,23.5,0c2,0,2.5,0.4,2.7,2.3c0.2,1.8,0.3,3.5,0.5,5.5
			c2-0.3,3.9-0.5,5.9-0.8c5.6-0.8,10.2,1,13.3,5.7c3.1,4.7,3.1,9.7,0.1,14.3c-3.1,4.7-7.6,6.7-13.3,5.8c-0.9-0.1-1.8-0.3-2.7-0.4
			c-0.2,0-0.4,0-0.3,0c-0.5,3.2-0.6,6.3-1.4,9.2c-3.1,11.4-13.7,19.5-25.5,19.6c-5.1,0-10.3,0.1-15.4,0
			c-10.1-0.2-17.8-4.7-23.1-13.2c-0.5-0.8-1-1.2-2-1.2c-12.2-0.1-22.5-9.6-23.8-21.7c-0.2-1.4-0.2-2.9-0.3-4.3
			c-1.8,0.2-3.5,0.4-5.3,0.5c-6.2,0-11.2-5.1-11.5-11.7c-0.3-5.7,4.4-11.4,10.1-11.9c2.2-0.2,4.6,0.2,6.8,0.4
			c0.8,0.1,1.5,0.2,2.4,0.3c0.2-1.6,0.4-3,0.5-4.5c0.1-2,0.6-2.5,2.6-2.5c16.1,0,32.2,0,48.3,0c0.5,0,1,0,1.9,0
			c-0.6-0.7-0.9-1.2-1.3-1.7c-6.6-8.3-13.1-16.6-19.7-25c-1-1.3-0.9-1.9,0.3-3.1c7.3-6.8,18.3-7.4,26.4-1.5c0.4,0.3,0.8,0.5,1.1,0.8
			c1.9-1.9,3.7-3.7,5.6-5.6c-3.7-3.4-8.1-5.6-13.1-6.5c-9.8-1.9-18.4,0.7-25.7,7.5c-1.2,1.1-1.8,1.1-2.9,0c-2.4-2.4-4.8-4.7-7.1-7.1
			c-1.1-1.1-1.1-1.8,0-2.9c6.9-6.6,15-10.7,24.5-11.8c12.9-1.5,24.2,2.1,34,10.5c0.2,0.2,0.4,0.3,0.5,0.4c2-2,3.9-4,6-6.1
			c-0.9-0.8-1.9-1.8-3.1-2.7c-10.6-8.2-22.6-12-36-11c-12.2,0.9-22.8,5.8-31.7,14.2c-1.6,1.5-2.1,1.5-3.6,0c-2.5-2.5-5-5-7.6-7.5
			c-1-0.9-2.1-1.7-3.2-2.6c26.4-23.2,73.6-27.2,105.8,4.2C385.8,155.8,384.7,208.8,350.7,239.4z"/>
	</g>
</g>
<g>
	<path class="st2" d="M408.1,566.8c0,60.9-110.2,196.2-110.2,196.2S187.2,627.7,187.2,566.8c0-60.9,49.3-110.2,110.2-110.2
		C358.7,456.6,408.1,505.9,408.1,566.8L408.1,566.8z"/>
	<g>
		<path class="st0" d="M278.5,581.8c-0.2,0-0.8-0.2-1.1,0.2c-0.2,0.2-0.3,0.5-0.3,0.7c-0.2,2.8-0.6,5.6-0.8,8.4
			c-0.5,5.3-1.1,10.6-1.6,15.9c-0.4,3.7-0.7,7.3,0.2,11c2.2,9.2,10.8,17.2,19.9,17.7c6.7,0.4,13.4,0.4,20.1,0
			c11.6-0.7,21.2-11.1,21-22.8c-0.1-4.7-0.8-9.4-1.2-14.2c-0.5-5.1-1.1-10.3-1.6-15.4c0-0.2,0-0.9-0.4-1.3c-0.4-0.4-1.1-0.3-1.3-0.3
			C330.1,581.9,308.6,581.9,278.5,581.8z"/>
		<path class="st0" d="M235,585.4c-1.1,4.3,1.3,8.8,5.5,10.3c2.5,0.9,4.9,0.2,7.4-0.2c0.8-0.1,1-0.5,1-1.2c0.2-2.4,0.5-4.8,0.8-7.1
			c0.2-2.4,0.5-4.7,0.7-7.2c-1.9-0.3-3.7-0.5-5.5-0.8C240.4,578.4,236.2,581.1,235,585.4z"/>
		<path class="st0" d="M340.6,607c0.7,0,1.5,0.3,2.2,0.4c5.7,1.1,10.8-2.3,11.7-7.6c0.9-5.5-2.8-10.6-8.6-11.1
			c-2.8-0.2-5.7,0.5-8.6,0.8c0,0.5-0.1,0.6,0,0.8c0.5,4.9,1,9.9,1.5,14.8C338.9,606.3,339.2,607.1,340.6,607z"/>
		<path class="st0" d="M256.7,572.9c-2.1,0-2.1,0-2.4,2.2c-0.1,0.5-0.2,1-0.2,1.6c-0.7,7-1.3,14-2.1,21c-0.9,8.2,1.8,14.8,8.3,19.8
			c3.4,2.7,7.3,4,11.9,4.2c-0.2-0.6-0.4-1-0.4-1.5c-0.4-3-1.2-6-1-8.9c0.8-10.2,2-20.4,3-30.6c0.2-2.1,0.7-2.5,2.8-2.5
			c9,0,17.9,0,26.9,0c0.5,0,1,0,1.7,0c-0.2-1.8-0.3-3.4-0.5-5.2c-0.7,0-1.2,0-1.8,0C287.5,572.9,272.1,572.9,256.7,572.9z"/>
		<path class="st0" d="M297.6,475.3c-51.5,0-93.2,41.7-93.2,93.2c0,51.5,41.7,93.2,93.2,93.2s93.2-41.7,93.2-93.2
			C390.9,517.1,349.1,475.3,297.6,475.3z M350.7,627.4c-33.8,30.5-86.6,26.2-114.9-9.4c-28-35.2-20.2-83.5,9.4-108.8
			c0.6,0.7,1.2,1.4,1.9,2.2c-18.7,17.5-27.6,39-25.2,64.7c2,21,11.5,38.3,27.9,51.6c31.7,25.7,78.3,21.7,105-8.9
			c27-31.1,24.9-77.6-4.9-105.6c-29.8-28-72.5-25.5-97.6-5.6c2.4,2.5,4.7,5.1,7.2,7.7c0.6-0.5,0.9-0.7,1.2-1
			c11-9.6,23.7-14.4,38.4-13.9c14,0.4,26,5.7,36.1,15.2c1.7,1.6,1.7,2.1,0.1,3.7c-2.4,2.4-4.9,4.9-7.4,7.3c-1.1,1.1-1.8,1.1-2.9,0
			c-8.6-8.1-18.8-11.9-30.5-11.2c-8.9,0.6-16.8,4-23.5,9.9c-0.1,0.1-0.3,0.3-0.3,0.4c1.8,1.8,3.6,3.6,5.5,5.5
			c2.8-2.4,5.9-4.5,9.5-5.8c12.5-4.5,23.8-2.2,33.7,6.6c1.4,1.3,1.4,1.9,0,3.3c-2.2,2.2-4.5,4.5-6.7,6.7c-1.4,1.4-2,1.5-3.5,0.1
			c-6-5.6-15.4-6.1-22-1.3c-0.3,0.2-0.6,0.5-1,0.8c2.3,3,4.5,5.9,6.7,8.8c4.7,6.2,9.4,12.4,14.1,18.6c1.3,1.6,1,3.5,1.3,5.3
			c0.2,1.2,0.3,2.5,0.4,3.9c0.5,0,1.1,0,1.6,0c7.8,0,15.7,0,23.5,0c2,0,2.5,0.4,2.7,2.3c0.2,1.8,0.3,3.5,0.5,5.5
			c2-0.3,3.9-0.5,5.9-0.8c5.6-0.8,10.2,1,13.3,5.7c3.1,4.7,3.1,9.7,0.1,14.3c-3.1,4.7-7.6,6.7-13.3,5.8c-0.9-0.1-1.8-0.3-2.7-0.4
			c-0.2,0-0.4,0-0.3,0c-0.5,3.2-0.6,6.3-1.4,9.2c-3.1,11.4-13.7,19.5-25.5,19.6c-5.1,0-10.3,0.1-15.4,0
			c-10.1-0.2-17.8-4.7-23.1-13.2c-0.5-0.8-1-1.2-2-1.2c-12.2-0.1-22.5-9.6-23.8-21.7c-0.2-1.4-0.2-2.9-0.3-4.3
			c-1.8,0.2-3.5,0.4-5.3,0.5c-6.2,0-11.2-5.1-11.5-11.7c-0.3-5.7,4.4-11.4,10.1-11.9c2.2-0.2,4.6,0.2,6.8,0.4
			c0.8,0.1,1.5,0.2,2.4,0.3c0.2-1.6,0.4-3,0.5-4.5c0.1-2,0.6-2.5,2.6-2.5c16.1,0,32.2,0,48.3,0c0.5,0,1,0,1.9,0
			c-0.6-0.7-0.9-1.2-1.3-1.7c-6.6-8.3-13.1-16.6-19.7-25c-1-1.3-0.9-1.9,0.3-3.1c7.3-6.8,18.3-7.4,26.4-1.5c0.4,0.3,0.8,0.5,1.1,0.8
			c1.9-1.9,3.7-3.7,5.6-5.6c-3.7-3.4-8.1-5.6-13.1-6.5c-9.8-1.9-18.4,0.7-25.7,7.5c-1.2,1.1-1.8,1.1-2.9,0c-2.4-2.4-4.8-4.7-7.1-7.1
			c-1.1-1.1-1.1-1.8,0-2.9c6.9-6.6,15-10.7,24.5-11.8c12.9-1.5,24.2,2.1,34,10.5c0.2,0.2,0.4,0.3,0.5,0.4c2-2,3.9-4,6-6.1
			c-0.9-0.8-1.9-1.8-3.1-2.7c-10.6-8.2-22.6-12-36-11c-12.2,0.9-22.8,5.8-31.7,14.2c-1.6,1.5-2.1,1.5-3.6,0c-2.5-2.5-5-5-7.6-7.5
			c-1-0.9-2.1-1.7-3.2-2.6c26.4-23.2,73.6-27.2,105.8,4.2C385.8,543.8,384.7,596.8,350.7,627.4z"/>
	</g>
</g>
</svg>
